<svg width="74" height="73" viewBox="0 0 74 73" fill="none" xmlns="http://www.w3.org/2000/svg">
<path d="M37 6.59639C46.8072 6.59639 48.1446 6.59639 52.1566 6.59639C55.7229 6.59639 57.506 7.4759 58.8434 7.91566C60.6265 8.79518 61.9639 9.23494 63.3012 10.5542C64.6386 11.8735 65.5301 13.1928 65.9759 14.9518C66.4217 16.2711 66.8675 18.0301 67.3133 21.5482C67.3133 25.506 67.3133 26.3855 67.3133 36.5C67.3133 46.6145 67.3133 47.494 67.3133 51.4518C67.3133 54.9699 66.4217 56.7289 65.9759 58.0482C65.0843 59.8072 64.6386 61.1265 63.3012 62.4458C61.9639 63.7651 60.6265 64.6446 58.8434 65.0843C57.506 65.5241 55.7229 65.9639 52.1566 66.4036C48.1446 66.4036 47.253 66.4036 37 66.4036C26.747 66.4036 25.8554 66.4036 21.8434 66.4036C18.2771 66.4036 16.494 65.5241 15.1566 65.0843C13.3735 64.2048 12.0361 63.7651 10.6988 62.4458C9.36145 61.1265 8.46988 59.8072 8.0241 58.0482C7.57831 56.7289 7.13253 54.9699 6.68675 51.4518C6.68675 47.494 6.68675 46.6145 6.68675 36.5C6.68675 26.3855 6.68675 25.506 6.68675 21.5482C6.68675 18.0301 7.57831 16.2711 8.0241 14.9518C8.91566 13.1928 9.36145 11.8735 10.6988 10.5542C12.0361 9.23494 13.3735 8.35542 15.1566 7.91566C16.494 7.4759 18.2771 7.03615 21.8434 6.59639C25.8554 6.59639 27.1928 6.59639 37 6.59639ZM37 0C26.747 0 25.8554 0 21.8434 0C17.8313 0 15.1566 0.879521 12.9277 1.75904C10.6988 2.63856 8.46988 3.95783 6.24097 6.15663C4.01205 8.35542 3.12048 10.1145 1.78314 12.753C0.891569 14.9518 0.445783 17.5904 0 21.5482C0 25.506 0 26.8253 0 36.5C0 46.6145 0 47.494 0 51.4518C0 55.4096 0.891569 58.0482 1.78314 60.247C2.6747 62.4458 4.01205 64.6446 6.24097 66.8434C8.46988 69.0422 10.253 69.9217 12.9277 71.241C15.1566 72.1205 17.8313 72.5602 21.8434 73C25.8554 73 27.1928 73 37 73C46.8072 73 48.1446 73 52.1566 73C56.1687 73 58.8434 72.1205 61.0723 71.241C63.3012 70.3615 65.5301 69.0422 67.759 66.8434C69.988 64.6446 70.8795 62.8855 72.2169 60.247C73.1084 58.0482 73.5542 55.4096 74 51.4518C74 47.494 74 46.1747 74 36.5C74 26.8253 74 25.506 74 21.5482C74 17.5904 73.1084 14.9518 72.2169 12.753C71.3253 10.5542 69.988 8.35542 67.759 6.15663C65.5301 3.95783 63.747 3.07832 61.0723 1.75904C58.8434 0.879521 56.1687 0.439759 52.1566 0C48.1446 0 47.253 0 37 0Z" fill="white"/>
<path d="M37 17.5904C26.3012 17.5904 17.8313 25.9458 17.8313 36.5C17.8313 47.0542 26.3012 55.4096 37 55.4096C47.6988 55.4096 56.1687 47.0542 56.1687 36.5C56.1687 25.9458 47.6988 17.5904 37 17.5904ZM37 48.8133C30.3133 48.8133 24.5181 43.5361 24.5181 36.5C24.5181 29.9036 29.8675 24.1867 37 24.1867C43.6868 24.1867 49.4819 29.4639 49.4819 36.5C49.4819 43.0964 43.6868 48.8133 37 48.8133Z" fill="white"/>
<path d="M56.6145 21.5482C59.0765 21.5482 61.0723 19.5793 61.0723 17.1506C61.0723 14.7219 59.0765 12.753 56.6145 12.753C54.1525 12.753 52.1566 14.7219 52.1566 17.1506C52.1566 19.5793 54.1525 21.5482 56.6145 21.5482Z" fill="white"/>
</svg>
