<svg width="73" height="60" viewBox="0 0 73 60" fill="none" xmlns="http://www.w3.org/2000/svg">
<path d="M72.75 7.1875C70.0312 8.55625 67.3125 9.0125 64.1406 9.46875C67.3125 7.64375 69.5781 4.90625 70.4844 1.25625C67.7656 3.08125 64.5937 3.99375 60.9687 4.90625C58.25 2.16875 54.1719 0.34375 50.0938 0.34375C40.5781 0.34375 33.3281 9.46875 35.5938 18.5938C23.3594 18.1375 12.4844 12.2063 4.78125 3.08125C0.703125 9.925 2.96875 18.5938 9.3125 23.1562C7.04688 23.1562 4.78125 22.2438 2.51562 21.3313C2.51562 28.175 7.5 34.5625 14.2969 36.3875C12.0313 36.8437 9.76563 37.3 7.5 36.8438C9.3125 42.775 14.75 47.3375 21.5469 47.3375C16.1094 51.4437 7.95313 53.725 0.25 52.8125C7.04688 56.9187 14.75 59.6562 22.9062 59.6562C50.5469 59.6562 65.9531 36.3875 65.0469 14.9437C68.2187 13.1187 70.9375 10.3812 72.75 7.1875Z" fill="white"/>
</svg>
