<svg width="74" height="52" viewBox="0 0 74 52" fill="none" xmlns="http://www.w3.org/2000/svg">
<path d="M72.15 7.89286C71.225 4.64286 68.9126 2.32143 65.6751 1.39286C60.1251 8.30207e-07 36.5375 0 36.5375 0C36.5375 0 13.4125 8.30207e-07 7.40003 1.39286C4.16253 2.32143 1.84999 4.64286 0.924986 7.89286C-1.41282e-05 13.9286 0 26 0 26C0 26 1.40592e-05 38.0714 1.38751 44.1071C2.31251 47.3571 4.62499 49.6786 7.86249 50.6071C13.4125 52 37 52 37 52C37 52 60.1249 52 66.1374 50.6071C69.3749 49.6786 71.6876 47.3571 72.6126 44.1071C74.0001 38.0714 74 26 74 26C74 26 74 13.9286 72.15 7.89286ZM29.6 37.1429V14.8571L49.025 26L29.6 37.1429Z" fill="white"/>
</svg>
